<svg width="53" height="34" viewBox="0 0 53 34" fill="none" xmlns="http://www.w3.org/2000/svg">
<path d="M36.8114 29.7179V33.6225L44.1001 33.2729C44.1001 33.2729 52.088 31.8152 52.9618 22.314C52.6679 20.3557 52.6639 14.8266 46.7733 11.7919C44.8945 10.8228 42.7933 10.366 40.6802 10.366H35.4688C35.4688 10.366 35.2344 13.631 37.2761 14.3301C39.143 14.5644 42.408 14.5049 42.408 14.5049C42.408 14.5049 48.0047 15.3787 48.7634 22.2584C48.7634 22.2584 48.6482 29.428 41.0099 29.7775L36.8114 29.7179Z" fill="#8E69A7"/>
<path d="M34.8889 29.7178H9.88071C9.88071 29.7178 5.1579 29.0187 4.57401 24.1212C4.57401 22.8978 5.21351 18.5245 9.93631 18.4649C9.93631 18.4649 11.7436 18.3497 11.6284 15.0251C11.5132 11.7005 15.6521 11.1206 16.6412 11.7601C16.6412 11.7601 19.791 14.8503 20.5457 10.3619C21.9439 7.97071 23.3421 3.83181 30.4561 4.88044C30.4561 4.88044 33.0776 5.6391 34.8849 8.55461L39.1986 8.72938C39.1986 8.72938 37.157 2.54883 30.8612 1.03547C30.8612 1.03547 21.8247 -1.70526 17.8606 7.62117C17.6858 7.91113 8.00985 5.87346 7.71592 14.6756C7.71592 14.6756 -0.271931 17.5315 0.721088 25.3446C0.721088 25.3446 1.59495 32.3394 9.52321 33.6224C16.6928 33.6224 35.0557 33.6224 35.0557 33.6224L34.8889 29.7178Z" fill="#21B2C8"/>
<path d="M10.7546 26.7273C12.1718 26.7273 13.3206 25.5784 13.3206 24.1613C13.3206 22.7442 12.1718 21.5953 10.7546 21.5953C9.33749 21.5953 8.18866 22.7442 8.18866 24.1613C8.18866 25.5784 9.33749 26.7273 10.7546 26.7273Z" fill="#21B2C8"/>
<path d="M31.4292 11.2557C31.4292 13.1028 29.9317 14.5963 28.0887 14.5963C27.9536 14.5963 27.8226 14.5883 27.6915 14.5724C26.0311 14.3778 24.7442 12.9637 24.7442 11.2518C24.7442 9.40475 26.2417 7.91125 28.0847 7.91125C29.9277 7.91125 31.4292 9.4127 31.4292 11.2557Z" fill="#8E69A7"/>
<path d="M22.3371 22.5284C22.5715 22.1391 27.33 14.5127 27.33 14.5127L25.8604 13.7461L20.7841 21.9921L22.0273 22.9136L22.3371 22.5284Z" fill="#8E69A7"/>
<path d="M18.0592 23.6168H13.261V24.7052H18.0592V23.6168Z" fill="#21B2C8"/>
<path d="M20.6253 26.7273C22.0424 26.7273 23.1912 25.5784 23.1912 24.1613C23.1912 22.7442 22.0424 21.5953 20.6253 21.5953C19.2081 21.5953 18.0593 22.7442 18.0593 24.1613C18.0593 25.5784 19.2081 26.7273 20.6253 26.7273Z" fill="#21B2C8"/>
</svg>
